<?xml version="1.0" standalone="no"?>
<!DOCTYPE svg PUBLIC "-//W3C//DTD SVG 20010904//EN"
 "http://www.w3.org/TR/2001/REC-SVG-20010904/DTD/svg10.dtd">
<svg version="1.0" xmlns="http://www.w3.org/2000/svg"
 width="302.000000pt" height="302.000000pt" viewBox="0 0 302.000000 302.000000"
 preserveAspectRatio="xMidYMid meet">
<metadata>
Created by potrace 1.11, written by Peter Selinger 2001-2013
</metadata>
<g transform="translate(0.000000,302.000000) scale(0.100000,-0.100000)"
fill="#000000" stroke="none">
<path d="M7 2711 c-3 -6 -1 -1898 2 -1913 0 -3 58 -25 128 -48 279 -90 1232
-403 1296 -425 81 -28 62 -32 497 112 25 8 52 16 60 18 8 2 89 28 180 58 177
58 610 198 750 243 47 14 87 29 90 31 3 3 5 438 5 968 l0 962 -1503 0 c-826 0
-1504 -3 -1505 -6z"/>
</g>
</svg>
