<svg id="Layer_1" data-name="Layer 1" xmlns="http://www.w3.org/2000/svg" viewBox="0 0 80 80"><defs><style>.cls-1{fill:#fff;}</style></defs><title>logo-white</title><polygon class="cls-1" points="60.75 25.61 63.78 25.61 62.27 21.15 60.75 25.61"/><path class="cls-1" d="M14,36.85H11.35V47.2H14a5.18,5.18,0,1,0,0-10.36Z"/><path class="cls-1" d="M29.73,36.64A5.39,5.39,0,1,0,35.06,42,5.37,5.37,0,0,0,29.73,36.64Z"/><path class="cls-1" d="M-.12,7.76V59.08l1.81.59L39.18,72l.81.27.81-.26L78.3,59.88l1.83-.59V7.76ZM41.21,17.83l.1-.1h2.47l.19.1,3.89,4.84,3.89-4.84.19-.1H54.4l.09.1V30.92L54.4,31H51.93l-.1-.09V21.82l-3.89,4.74h-.19l-3.89-4.74v9.11l-.1.09H41.31l-.1-.09Zm-15.55,0,.09-.1h2.47l.19.1,3.89,4.84,3.89-4.84.19-.1h2.47l.09.1V30.92l-.09.09H36.38l-.09-.09V21.82L32.4,26.56h-.19l-3.89-4.74v9.11l-.1.09H25.76l-.09-.09Zm-4.93,0,.1-.1h2.47l.1.1V30.92l-.1.09H20.83l-.1-.09ZM10.4,21.15a3.66,3.66,0,0,1,3.79-3.7,4.24,4.24,0,0,1,3.7,2.09l-2,1.52h-.19a1.91,1.91,0,0,0-1.46-.85.85.85,0,0,0-.95.95c0,1.52,5.59,1.52,5.59,5.88a4.35,4.35,0,0,1-4.46,4.27,4.54,4.54,0,0,1-4.46-2.94L12.1,26.9h.19a2.19,2.19,0,0,0,2.09,1.65A1.47,1.47,0,0,0,16,27C16,24.76,10.4,24.85,10.4,21.15ZM14,48.66H10l-.1-.09V35.48l.1-.1h4a6.65,6.65,0,1,1,0,13.28Zm15.72.29a6.92,6.92,0,1,1,7-6.92A7,7,0,0,1,29.73,48.95Zm20.92-.38-.09.09h-1.4l-.09-.09L45.83,38.1,42.61,48.57l-.1.09H41.13L41,48.57,37,35.48l.1-.1h1.4l.1.1,3.3,10.85L45,35.67l.09-.09h1.4l.09.09,3.19,10.66,3.32-10.85.1-.1h1.4l.1.1Zm17.33,0-.09.09H66.54l-.19-.09L58.12,37.72V48.57l-.1.09H56.76l-.1-.09V35.48l.1-.1H58.1l.19.1,8.23,10.85V35.48l.09-.1h1.27l.09.1ZM68.62,31H65.68l-.09-.09-.95-2.66H59.89l-.95,2.66-.1.09H55.91l-.09-.09,5-13.09.09-.09h2.65l.1.09,5,13.09Z"/></svg>