<svg id="Layer_1" data-name="Layer 1" xmlns="http://www.w3.org/2000/svg" viewBox="0 0 80 80"><defs><style>.cls-1{fill:#fff;}</style></defs><title>logo-white2</title><path class="cls-1" d="M62.27,21.15l1.52,4.46h-3ZM14,36.85H11.35V47.2H14a5.18,5.18,0,1,0,0-10.36Zm15.72-.21A5.39,5.39,0,1,0,35.06,42,5.37,5.37,0,0,0,29.73,36.64ZM80.13,7.76V59.29l-1.83.59L40.81,72l-.81.26L39.18,72,1.69,59.68l-1.81-.59V7.76ZM41.21,30.92l.1.09h2.47l.1-.09V21.82l3.89,4.74h.19l3.89-4.74v9.11l.1.09H54.4l.09-.09V17.83l-.09-.1H51.93l-.19.1-3.89,4.84L44,17.83l-.19-.1H41.31l-.1.1Zm-15.55,0,.09.09h2.47l.1-.09V21.82l3.89,4.74h.19l3.89-4.74v9.11l.09.09h2.47l.09-.09V17.83l-.09-.1H36.38l-.19.1L32.3,22.67l-3.89-4.84-.19-.1H25.76l-.09.1Zm-4.93,0,.1.09h2.47l.1-.09V17.83l-.1-.1H20.83l-.1.1ZM16,27a1.47,1.47,0,0,1-1.61,1.52,2.19,2.19,0,0,1-2.09-1.65H12.1L9.92,28.36a4.54,4.54,0,0,0,4.46,2.94A4.35,4.35,0,0,0,18.84,27c0-4.36-5.59-4.36-5.59-5.88a.85.85,0,0,1,.95-.95,1.91,1.91,0,0,1,1.46.85h.19l2-1.52a4.24,4.24,0,0,0-3.7-2.09,3.66,3.66,0,0,0-3.79,3.7C10.4,24.85,16,24.76,16,27Zm5,15a6.69,6.69,0,0,0-7-6.64H10l-.1.1V48.57l.1.09h4A6.69,6.69,0,0,0,21,42Zm15.72,0a7,7,0,1,0-7,6.92A7,7,0,0,0,36.75,42Zm18-6.54-.1-.1h-1.4l-.1.1L49.82,46.33,46.63,35.67l-.09-.09h-1.4l-.09.09L41.85,46.33l-3.3-10.85-.1-.1h-1.4l-.1.1L41,48.57l.09.09h1.38l.1-.09L45.83,38.1l3.22,10.47.09.09h1.4l.09-.09Zm13.26,0-.09-.1H66.62l-.09.1V46.33L58.29,35.48l-.19-.1H56.76l-.1.1V48.57l.1.09H58l.1-.09V37.72l8.23,10.85.19.09h1.35l.09-.09Zm.73-4.56-5-13.09-.1-.09H60.94l-.09.09-5,13.09.09.09h2.94l.1-.09.95-2.66h4.74l.95,2.66.09.09h2.94Z"/></svg>